# Blender v2.65 (sub 0) OBJ File: ''
# www.blender.org
o Cylinder
v 0.000000 0.010808 -0.561668
v 0.000000 1.134144 -0.561668
v 0.109576 0.010808 -0.550875
v 0.109576 1.134144 -0.550875
v 0.214941 0.010808 -0.518913
v 0.214941 1.134144 -0.518913
v 0.312046 0.010808 -0.467010
v 0.312046 1.134144 -0.467010
v 0.397159 0.010808 -0.397159
v 0.397159 1.134144 -0.397159
v 0.467010 0.010808 -0.312046
v 0.467010 1.134144 -0.312046
v 0.518913 0.010808 -0.214941
v 0.518913 1.134144 -0.214941
v 0.550875 0.010808 -0.109576
v 0.550875 1.134144 -0.109576
v 0.561668 0.010808 -0.000000
v 0.561668 1.134144 -0.000000
v 0.550875 0.010808 0.109576
v 0.550875 1.134144 0.109576
v 0.518913 0.010808 0.214941
v 0.518913 1.134144 0.214941
v 0.467010 0.010808 0.312046
v 0.467010 1.134144 0.312046
v 0.397159 0.010808 0.397159
v 0.397159 1.134144 0.397159
v 0.312046 0.010808 0.467010
v 0.312046 1.134144 0.467010
v 0.214941 0.010808 0.518913
v 0.214941 1.134144 0.518913
v 0.109576 0.010808 0.550875
v 0.109576 1.134144 0.550875
v -0.000000 0.010808 0.561668
v -0.000000 1.134144 0.561668
v -0.109576 0.010808 0.550875
v -0.109576 1.134144 0.550875
v -0.214941 0.010808 0.518913
v -0.214941 1.134144 0.518913
v -0.312046 0.010808 0.467009
v -0.312046 1.134144 0.467009
v -0.397159 0.010808 0.397159
v -0.397159 1.134144 0.397159
v -0.467010 0.010808 0.312046
v -0.467010 1.134144 0.312046
v -0.518914 0.010808 0.214941
v -0.518914 1.134144 0.214941
v -0.550876 0.010808 0.109575
v -0.550876 1.134144 0.109575
v -0.561668 0.010808 -0.000001
v -0.561668 1.134144 -0.000001
v -0.550875 0.010808 -0.109577
v -0.550875 1.134144 -0.109577
v -0.518913 0.010808 -0.214942
v -0.518913 1.134144 -0.214942
v -0.467009 0.010808 -0.312046
v -0.467009 1.134144 -0.312046
v -0.397159 0.010808 -0.397160
v -0.397159 1.134144 -0.397160
v -0.312045 0.010808 -0.467010
v -0.312045 1.134144 -0.467010
v -0.214940 0.010808 -0.518914
v -0.214940 1.134144 -0.518914
v -0.109575 0.010808 -0.550876
v -0.109575 1.134144 -0.550876
v -0.000000 0.056392 -0.512274
v 0.099940 0.056392 -0.502431
v 0.100292 1.134144 -0.504201
v -0.000000 1.134144 -0.514079
v 0.196039 0.056392 -0.473280
v 0.196729 1.134144 -0.474947
v 0.284604 0.056392 -0.425941
v 0.285607 1.134144 -0.427441
v 0.362233 0.056392 -0.362233
v 0.363509 1.134144 -0.363509
v 0.425941 0.056392 -0.284604
v 0.427441 1.134144 -0.285607
v 0.473280 0.056392 -0.196039
v 0.474947 1.134144 -0.196729
v 0.502431 0.056392 -0.099940
v 0.504201 1.134144 -0.100292
v 0.512274 0.056392 -0.000000
v 0.514079 1.134144 -0.000000
v 0.502431 0.056392 0.099940
v 0.504201 1.134144 0.100292
v 0.473280 0.056392 0.196039
v 0.474947 1.134144 0.196729
v 0.425941 0.056392 0.284604
v 0.427441 1.134144 0.285607
v 0.362233 0.056392 0.362233
v 0.363509 1.134144 0.363509
v 0.284604 0.056392 0.425941
v 0.285607 1.134144 0.427441
v 0.196039 0.056392 0.473280
v 0.196729 1.134144 0.474947
v 0.099940 0.056392 0.502431
v 0.100292 1.134144 0.504201
v -0.000000 0.056392 0.512274
v -0.000000 1.134144 0.514079
v -0.099940 0.056392 0.502431
v -0.100292 1.134144 0.504201
v -0.196039 0.056392 0.473280
v -0.196730 1.134144 0.474947
v -0.284605 0.056392 0.425940
v -0.285607 1.134144 0.427441
v -0.362233 0.056392 0.362233
v -0.363509 1.134144 0.363508
v -0.425941 0.056392 0.284604
v -0.427441 1.134144 0.285607
v -0.473280 0.056392 0.196039
v -0.474947 1.134144 0.196729
v -0.502431 0.056392 0.099939
v -0.504201 1.134144 0.100291
v -0.512274 0.056392 -0.000000
v -0.514079 1.134144 -0.000000
v -0.502431 0.056392 -0.099940
v -0.504201 1.134144 -0.100292
v -0.473280 0.056392 -0.196039
v -0.474947 1.134144 -0.196730
v -0.425940 0.056392 -0.284605
v -0.427440 1.134144 -0.285607
v -0.362232 0.056392 -0.362233
v -0.363508 1.134144 -0.363509
v -0.284604 0.056392 -0.425941
v -0.285606 1.134144 -0.427441
v -0.196038 0.056392 -0.473280
v -0.196729 1.134144 -0.474947
v -0.099939 0.056392 -0.502431
v -0.100291 1.134144 -0.504201
v 0.000000 0.247844 -0.561668
v 0.109576 0.247844 -0.550875
v 0.214941 0.247844 -0.518913
v 0.312046 0.247844 -0.467010
v 0.397159 0.247844 -0.397159
v 0.467010 0.247844 -0.312046
v 0.518913 0.247844 -0.214941
v 0.550875 0.247844 -0.109576
v 0.561668 0.247844 -0.000000
v 0.550875 0.247844 0.109576
v 0.518913 0.247844 0.214941
v 0.467010 0.247844 0.312046
v 0.397159 0.247844 0.397159
v 0.312046 0.247844 0.467010
v 0.214941 0.247844 0.518913
v 0.109576 0.247844 0.550875
v -0.000000 0.247844 0.561668
v -0.109576 0.247844 0.550875
v -0.214941 0.247844 0.518913
v -0.312046 0.247844 0.467009
v -0.397159 0.247844 0.397159
v -0.467010 0.247844 0.312046
v -0.518914 0.247844 0.214941
v -0.550876 0.247844 0.109575
v -0.561668 0.247844 -0.000001
v -0.550875 0.247844 -0.109577
v -0.518913 0.247844 -0.214942
v -0.467009 0.247844 -0.312046
v -0.397159 0.247844 -0.397160
v -0.312045 0.247844 -0.467010
v -0.214940 0.247844 -0.518914
v -0.109575 0.247844 -0.550876
v -0.000000 0.010808 -0.486293
v 0.094871 0.010808 -0.476949
v 0.186096 0.010808 -0.449276
v 0.270170 0.010808 -0.404338
v 0.343861 0.010808 -0.343861
v 0.404338 0.010808 -0.270170
v 0.449276 0.010808 -0.186096
v 0.476949 0.010808 -0.094871
v 0.486293 0.010808 -0.000000
v 0.476949 0.010808 0.094871
v 0.449276 0.010808 0.186096
v 0.404338 0.010808 0.270170
v 0.343861 0.010808 0.343861
v 0.270170 0.010808 0.404338
v 0.186096 0.010808 0.449276
v 0.094871 0.010808 0.476949
v -0.000000 0.010808 0.486293
v -0.094871 0.010808 0.476949
v -0.186097 0.010808 0.449276
v -0.270170 0.010808 0.404338
v -0.343861 0.010808 0.343861
v -0.404338 0.010808 0.270170
v -0.449276 0.010808 0.186096
v -0.476949 0.010808 0.094871
v -0.486293 0.010808 -0.000000
v -0.476949 0.010808 -0.094872
v -0.449276 0.010808 -0.186097
v -0.404338 0.010808 -0.270170
v -0.343861 0.010808 -0.343862
v -0.270169 0.010808 -0.404338
v -0.186096 0.010808 -0.449277
v -0.094870 0.010808 -0.476949
v 0.427441 1.134144 -0.285607
v 0.474947 1.134144 -0.196729
v -0.514079 1.134144 -0.000000
v -0.504201 1.134144 -0.100292
v 0.363509 1.134144 0.363509
v 0.285607 1.134144 0.427441
v -0.100291 1.134144 -0.504201
v -0.000000 1.134144 -0.514079
v -0.285607 1.134144 0.427441
v -0.363509 1.134144 0.363508
v 0.504201 1.134144 -0.100292
v 0.514079 1.134144 -0.000000
v -0.474947 1.134144 -0.196730
v -0.427440 1.134144 -0.285607
v 0.196729 1.134144 0.474947
v 0.100292 1.134144 0.504201
v 0.196729 1.134144 -0.474947
v 0.285607 1.134144 -0.427441
v -0.427441 1.134144 0.285607
v -0.474947 1.134144 0.196729
v 0.504201 1.134144 0.100292
v 0.474947 1.134144 0.196729
v -0.363508 1.134144 -0.363509
v -0.285606 1.134144 -0.427441
v -0.000000 1.134144 0.514079
v -0.100292 1.134144 0.504201
v 0.363509 1.134144 -0.363509
v -0.504201 1.134144 0.100291
v 0.427441 1.134144 0.285607
v -0.196729 1.134144 -0.474947
v -0.196730 1.134144 0.474947
v 0.100292 1.134144 -0.504201
v 0.474947 1.134144 -0.196729
v 0.100292 1.134144 -0.504201
v -0.196730 1.134144 0.474947
v -0.196729 1.134144 -0.474947
v -0.100291 1.134144 -0.504201
v 0.363509 1.134144 0.363509
v -0.514079 1.134144 -0.000000
v 0.427441 1.134144 -0.285607
v -0.363509 1.134144 0.363508
v -0.000000 1.134144 -0.514079
v 0.285607 1.134144 0.427441
v -0.504201 1.134144 -0.100292
v 0.196729 1.134144 0.474947
v -0.474947 1.134144 -0.196730
v 0.504201 1.134144 -0.100292
v -0.285607 1.134144 0.427441
v 0.285607 1.134144 -0.427441
v 0.100292 1.134144 0.504201
v -0.427440 1.134144 -0.285607
v 0.514079 1.134144 -0.000000
v -0.100292 1.134144 0.504201
v -0.285606 1.134144 -0.427441
v 0.474947 1.134144 0.196729
v -0.474947 1.134144 0.196729
v -0.363508 1.134144 -0.363509
v 0.504201 1.134144 0.100292
v -0.427441 1.134144 0.285607
v 0.196729 1.134144 -0.474947
v 0.427441 1.134144 0.285607
v -0.504201 1.134144 0.100291
v 0.363509 1.134144 -0.363509
v -0.000000 1.134144 0.514079
v 0.515551 1.134144 -0.213548
v -0.547306 1.134144 -0.108867
v 0.310024 1.134144 0.463984
v -0.000000 1.134144 -0.558029
v -0.394586 1.134144 0.394586
v 0.558029 1.134144 -0.000000
v -0.463983 1.134144 -0.310025
v 0.108866 1.134144 0.547306
v 0.310024 1.134144 -0.463984
v -0.515551 1.134144 0.213548
v 0.515551 1.134144 0.213548
v -0.310023 1.134144 -0.463984
v -0.108866 1.134144 0.547306
v 0.463984 1.134144 -0.310024
v -0.558029 1.134144 -0.000001
v 0.394586 1.134144 0.394586
v -0.108865 1.134144 -0.547306
v -0.310024 1.134144 0.463984
v 0.547306 1.134144 -0.108866
v -0.515551 1.134144 -0.213549
v 0.213548 1.134144 0.515551
v 0.213548 1.134144 -0.515551
v -0.463984 1.134144 0.310024
v 0.547306 1.134144 0.108866
v -0.394585 1.134144 -0.394586
v -0.000000 1.134144 0.558029
v 0.394586 1.134144 -0.394586
v -0.547306 1.134144 0.108865
v 0.463984 1.134144 0.310024
v -0.213548 1.134144 -0.515552
v -0.213549 1.134144 0.515551
v 0.108866 1.134144 -0.547306
vn 0.098017 0.000000 -0.995185
vn 0.290284 0.000000 -0.956940
vn 0.471397 0.000000 -0.881921
vn 0.634393 0.000000 -0.773010
vn 0.773010 0.000000 -0.634393
vn 0.881921 0.000000 -0.471397
vn 0.956940 0.000000 -0.290285
vn 0.995185 0.000000 -0.098017
vn 0.995185 0.000000 0.098017
vn 0.956940 0.000000 0.290285
vn 0.881922 0.000000 0.471396
vn 0.773010 0.000000 0.634393
vn 0.634393 0.000000 0.773010
vn 0.471397 0.000000 0.881921
vn 0.290284 0.000000 0.956940
vn 0.098017 0.000000 0.995185
vn -0.098017 0.000000 0.995185
vn -0.290285 0.000000 0.956940
vn -0.471397 0.000000 0.881921
vn -0.634394 0.000000 0.773010
vn -0.773011 0.000000 0.634393
vn -0.881922 0.000000 0.471396
vn -0.956941 0.000000 0.290284
vn -0.995185 0.000000 0.098016
vn -0.995185 0.000000 -0.098018
vn -0.956940 0.000000 -0.290285
vn -0.881921 0.000000 -0.471398
vn -0.773010 0.000000 -0.634394
vn -0.634392 0.000000 -0.773011
vn -0.471395 0.000000 -0.881922
vn -0.098017 0.000000 -0.995185
vn -0.290283 0.000000 -0.956941
vn 0.000000 -1.000000 -0.000000
vn -0.098017 0.001666 0.995183
vn -0.290284 0.001666 0.956939
vn -0.471396 0.001666 0.881920
vn -0.634392 0.001666 0.773009
vn -0.773009 0.001666 0.634392
vn -0.881920 0.001666 0.471396
vn -0.956939 0.001666 0.290284
vn -0.995183 0.001666 0.098017
vn -0.995183 0.001666 -0.098017
vn -0.956939 0.001666 -0.290284
vn -0.881920 0.001666 -0.471396
vn -0.773009 0.001666 -0.634392
vn -0.634392 0.001666 -0.773009
vn -0.471396 0.001666 -0.881920
vn -0.290284 0.001666 -0.956939
vn -0.098017 0.001666 -0.995183
vn 0.098017 0.001666 -0.995183
vn 0.290285 0.001666 -0.956939
vn 0.471396 0.001666 -0.881920
vn 0.634393 0.001666 -0.773009
vn 0.773010 0.001666 -0.634392
vn 0.881920 0.001666 -0.471395
vn 0.956939 0.001666 -0.290283
vn 0.995183 0.001666 -0.098016
vn 0.995183 0.001666 0.098018
vn 0.956939 0.001666 0.290285
vn 0.881920 0.001666 0.471397
vn 0.773008 0.001666 0.634394
vn 0.634392 0.001666 0.773010
vn 0.471395 0.001666 0.881921
vn 0.098016 0.001666 0.995183
vn 0.290283 0.001666 0.956939
vn 0.000000 1.000000 0.000000
vn 0.000000 0.000000 0.000000
vn 0.956940 0.000000 -0.290284
s off
f 129//1 2//1 4//1
f 129//1 4//1 130//1
f 130//2 4//2 6//2
f 130//2 6//2 131//2
f 131//3 6//3 8//3
f 131//3 8//3 132//3
f 132//4 8//4 10//4
f 132//4 10//4 133//4
f 133//5 10//5 12//5
f 133//5 12//5 134//5
f 134//6 12//6 14//6
f 134//6 14//6 135//6
f 135//7 14//7 16//7
f 135//7 16//7 136//7
f 136//8 16//8 18//8
f 136//8 18//8 137//8
f 137//9 18//9 20//9
f 137//9 20//9 138//9
f 138//10 20//10 22//10
f 138//10 22//10 139//10
f 139//11 22//11 24//11
f 139//11 24//11 140//11
f 140//12 24//12 26//12
f 140//12 26//12 141//12
f 141//13 26//13 28//13
f 141//13 28//13 142//13
f 142//14 28//14 30//14
f 142//14 30//14 143//14
f 143//15 30//15 32//15
f 143//15 32//15 144//15
f 144//16 32//16 34//16
f 144//16 34//16 145//16
f 145//17 34//17 36//17
f 145//17 36//17 146//17
f 146//18 36//18 38//18
f 146//18 38//18 147//18
f 147//19 38//19 40//19
f 147//19 40//19 148//19
f 148//20 40//20 42//20
f 148//20 42//20 149//20
f 149//21 42//21 44//21
f 149//21 44//21 150//21
f 150//22 44//22 46//22
f 150//22 46//22 151//22
f 151//23 46//23 48//23
f 151//23 48//23 152//23
f 152//24 48//24 50//24
f 152//24 50//24 153//24
f 153//25 50//25 52//25
f 153//25 52//25 154//25
f 154//26 52//26 54//26
f 154//26 54//26 155//26
f 155//27 54//27 56//27
f 155//27 56//27 156//27
f 156//28 56//28 58//28
f 156//28 58//28 157//28
f 157//29 58//29 60//29
f 157//29 60//29 158//29
f 158//30 60//30 62//30
f 158//30 62//30 159//30
f 160//31 64//31 2//31
f 160//31 2//31 129//31
f 159//32 62//32 64//32
f 159//32 64//32 160//32
f 161//33 162//33 192//33
f 162//33 191//33 192//33
f 162//33 163//33 191//33
f 163//33 190//33 191//33
f 163//33 164//33 190//33
f 164//33 189//33 190//33
f 164//33 165//33 189//33
f 165//33 188//33 189//33
f 165//33 166//33 188//33
f 166//33 187//33 188//33
f 166//33 167//33 187//33
f 167//33 186//33 187//33
f 167//33 168//33 186//33
f 168//33 185//33 186//33
f 168//33 169//33 185//33
f 169//33 184//33 185//33
f 169//33 170//33 184//33
f 170//33 183//33 184//33
f 170//33 171//33 183//33
f 171//33 182//33 183//33
f 171//33 172//33 182//33
f 172//33 181//33 182//33
f 172//33 173//33 181//33
f 173//33 180//33 181//33
f 173//33 174//33 180//33
f 174//33 179//33 180//33
f 174//33 175//33 179//33
f 175//33 178//33 179//33
f 175//33 176//33 178//33
f 176//33 177//33 178//33
f 65//34 66//34 67//34
f 65//34 67//34 68//34
f 66//35 69//35 70//35
f 66//35 70//35 67//35
f 69//36 71//36 72//36
f 69//36 72//36 70//36
f 71//37 73//37 74//37
f 71//37 74//37 72//37
f 73//38 75//38 76//38
f 73//38 76//38 74//38
f 75//39 77//39 78//39
f 75//39 78//39 76//39
f 77//40 79//40 80//40
f 77//40 80//40 78//40
f 79//41 81//41 82//41
f 79//41 82//41 80//41
f 81//42 83//42 84//42
f 81//42 84//42 82//42
f 83//43 85//43 86//43
f 83//43 86//43 84//43
f 85//44 87//44 88//44
f 85//44 88//44 86//44
f 87//45 89//45 90//45
f 87//45 90//45 88//45
f 89//46 91//46 92//46
f 89//46 92//46 90//46
f 91//47 93//47 94//47
f 91//47 94//47 92//47
f 93//48 95//48 96//48
f 93//48 96//48 94//48
f 95//49 97//49 98//49
f 95//49 98//49 96//49
f 97//50 99//50 100//50
f 97//50 100//50 98//50
f 99//51 101//51 102//51
f 99//51 102//51 100//51
f 101//52 103//52 104//52
f 101//52 104//52 102//52
f 103//53 105//53 106//53
f 103//53 106//53 104//53
f 105//54 107//54 108//54
f 105//54 108//54 106//54
f 107//55 109//55 110//55
f 107//55 110//55 108//55
f 109//56 111//56 112//56
f 109//56 112//56 110//56
f 111//57 113//57 114//57
f 111//57 114//57 112//57
f 113//58 115//58 116//58
f 113//58 116//58 114//58
f 115//59 117//59 118//59
f 115//59 118//59 116//59
f 117//60 119//60 120//60
f 117//60 120//60 118//60
f 119//61 121//61 122//61
f 119//61 122//61 120//61
f 121//62 123//62 124//62
f 121//62 124//62 122//62
f 123//63 125//63 126//63
f 123//63 126//63 124//63
f 127//64 65//64 68//64
f 127//64 68//64 128//64
f 125//65 127//65 128//65
f 125//65 128//65 126//65
f 65//66 127//66 66//66
f 127//66 125//66 66//66
f 125//66 69//66 66//66
f 125//66 123//66 69//66
f 123//66 71//66 69//66
f 123//66 121//66 71//66
f 121//66 73//66 71//66
f 121//66 119//66 73//66
f 119//66 75//66 73//66
f 119//66 117//66 75//66
f 117//66 77//66 75//66
f 117//66 115//66 77//66
f 115//66 79//66 77//66
f 115//66 113//66 79//66
f 113//66 81//66 79//66
f 113//66 111//66 81//66
f 111//66 83//66 81//66
f 111//66 109//66 83//66
f 109//66 85//66 83//66
f 109//66 107//66 85//66
f 107//66 87//66 85//66
f 107//66 105//66 87//66
f 105//66 89//66 87//66
f 105//66 103//66 89//66
f 103//66 91//66 89//66
f 103//66 101//66 91//66
f 101//66 93//66 91//66
f 101//66 99//66 93//66
f 99//66 95//66 93//66
f 99//66 97//66 95//66
f 225//67 232//67 76//67
f 225//67 76//67 78//67
f 236//67 231//67 114//67
f 236//67 114//67 116//67
f 235//67 230//67 90//67
f 235//67 90//67 92//67
f 234//67 229//67 128//67
f 234//67 128//67 68//67
f 233//67 240//67 104//67
f 233//67 104//67 106//67
f 244//67 239//67 80//67
f 244//67 80//67 82//67
f 243//67 238//67 118//67
f 243//67 118//67 120//67
f 242//67 237//67 94//67
f 242//67 94//67 96//67
f 241//67 252//67 70//67
f 241//67 70//67 72//67
f 248//67 251//67 108//67
f 248//67 108//67 110//67
f 247//67 250//67 84//67
f 247//67 84//67 86//67
f 246//67 249//67 122//67
f 246//67 122//67 124//67
f 245//67 256//67 98//67
f 245//67 98//67 100//67
f 232//67 255//67 74//67
f 232//67 74//67 76//67
f 231//67 254//67 112//67
f 231//67 112//67 114//67
f 230//67 253//67 88//67
f 230//67 88//67 90//67
f 229//67 228//67 126//67
f 229//67 126//67 128//67
f 240//67 227//67 102//67
f 240//67 102//67 104//67
f 239//67 225//67 78//67
f 239//67 78//67 80//67
f 238//67 236//67 116//67
f 238//67 116//67 118//67
f 237//67 235//67 92//67
f 237//67 92//67 94//67
f 252//67 226//67 67//67
f 252//67 67//67 70//67
f 251//67 233//67 106//67
f 251//67 106//67 108//67
f 250//67 244//67 82//67
f 250//67 82//67 84//67
f 249//67 243//67 120//67
f 249//67 120//67 122//67
f 256//67 242//67 96//67
f 256//67 96//67 98//67
f 255//67 241//67 72//67
f 255//67 72//67 74//67
f 254//67 248//67 110//67
f 254//67 110//67 112//67
f 226//67 234//67 68//67
f 226//67 68//67 67//67
f 253//67 247//67 86//67
f 253//67 86//67 88//67
f 228//67 246//67 124//67
f 228//67 124//67 126//67
f 227//67 245//67 100//67
f 227//67 100//67 102//67
f 1//1 129//1 130//1
f 1//1 130//1 3//1
f 3//2 130//2 131//2
f 3//2 131//2 5//2
f 5//3 131//3 132//3
f 5//3 132//3 7//3
f 7//4 132//4 133//4
f 7//4 133//4 9//4
f 9//5 133//5 134//5
f 9//5 134//5 11//5
f 11//6 134//6 135//6
f 11//6 135//6 13//6
f 13//68 135//68 136//68
f 13//68 136//68 15//68
f 15//8 136//8 137//8
f 15//8 137//8 17//8
f 17//9 137//9 138//9
f 17//9 138//9 19//9
f 19//10 138//10 139//10
f 19//10 139//10 21//10
f 21//11 139//11 140//11
f 21//11 140//11 23//11
f 23//12 140//12 141//12
f 23//12 141//12 25//12
f 25//13 141//13 142//13
f 25//13 142//13 27//13
f 27//14 142//14 143//14
f 27//14 143//14 29//14
f 29//15 143//15 144//15
f 29//15 144//15 31//15
f 31//16 144//16 145//16
f 31//16 145//16 33//16
f 33//17 145//17 146//17
f 33//17 146//17 35//17
f 35//18 146//18 147//18
f 35//18 147//18 37//18
f 37//19 147//19 148//19
f 37//19 148//19 39//19
f 39//20 148//20 149//20
f 39//20 149//20 41//20
f 41//21 149//21 150//21
f 41//21 150//21 43//21
f 43//22 150//22 151//22
f 43//22 151//22 45//22
f 45//23 151//23 152//23
f 45//23 152//23 47//23
f 47//24 152//24 153//24
f 47//24 153//24 49//24
f 49//25 153//25 154//25
f 49//25 154//25 51//25
f 51//26 154//26 155//26
f 51//26 155//26 53//26
f 53//27 155//27 156//27
f 53//27 156//27 55//27
f 55//28 156//28 157//28
f 55//28 157//28 57//28
f 57//29 157//29 158//29
f 57//29 158//29 59//29
f 59//30 158//30 159//30
f 59//30 159//30 61//30
f 129//31 1//31 63//31
f 129//31 63//31 160//31
f 61//32 159//32 160//32
f 61//32 160//32 63//32
f 1//33 3//33 162//33
f 1//33 162//33 161//33
f 163//33 162//33 3//33
f 163//33 3//33 5//33
f 164//33 163//33 5//33
f 164//33 5//33 7//33
f 165//33 164//33 7//33
f 165//33 7//33 9//33
f 166//33 165//33 9//33
f 166//33 9//33 11//33
f 167//33 166//33 11//33
f 167//33 11//33 13//33
f 168//33 167//33 13//33
f 168//33 13//33 15//33
f 169//33 168//33 15//33
f 169//33 15//33 17//33
f 170//33 169//33 17//33
f 170//33 17//33 19//33
f 171//33 170//33 19//33
f 171//33 19//33 21//33
f 172//33 171//33 21//33
f 172//33 21//33 23//33
f 173//33 172//33 23//33
f 173//33 23//33 25//33
f 174//33 173//33 25//33
f 174//33 25//33 27//33
f 175//33 174//33 27//33
f 175//33 27//33 29//33
f 176//33 175//33 29//33
f 176//33 29//33 31//33
f 177//33 176//33 31//33
f 177//33 31//33 33//33
f 178//33 177//33 33//33
f 178//33 33//33 35//33
f 179//33 178//33 35//33
f 179//33 35//33 37//33
f 180//33 179//33 37//33
f 180//33 37//33 39//33
f 181//33 180//33 39//33
f 181//33 39//33 41//33
f 182//33 181//33 41//33
f 182//33 41//33 43//33
f 183//33 182//33 43//33
f 183//33 43//33 45//33
f 184//33 183//33 45//33
f 184//33 45//33 47//33
f 185//33 184//33 47//33
f 185//33 47//33 49//33
f 186//33 185//33 49//33
f 186//33 49//33 51//33
f 187//33 186//33 51//33
f 187//33 51//33 53//33
f 188//33 187//33 53//33
f 188//33 53//33 55//33
f 189//33 188//33 55//33
f 189//33 55//33 57//33
f 190//33 189//33 57//33
f 190//33 57//33 59//33
f 191//33 190//33 59//33
f 191//33 59//33 61//33
f 192//33 191//33 61//33
f 192//33 61//33 63//33
f 63//33 1//33 161//33
f 63//33 161//33 192//33
f 257//66 270//66 193//66
f 257//66 193//66 194//66
f 258//66 271//66 195//66
f 258//66 195//66 196//66
f 259//66 272//66 197//66
f 259//66 197//66 198//66
f 260//66 273//66 199//66
f 260//66 199//66 200//66
f 261//66 274//66 201//66
f 261//66 201//66 202//66
f 262//66 275//66 203//66
f 262//66 203//66 204//66
f 263//66 276//66 205//66
f 263//66 205//66 206//66
f 264//66 277//66 207//66
f 264//66 207//66 208//66
f 265//66 278//66 209//66
f 265//66 209//66 210//66
f 266//66 279//66 211//66
f 266//66 211//66 212//66
f 267//66 280//66 213//66
f 267//66 213//66 214//66
f 268//66 281//66 215//66
f 268//66 215//66 216//66
f 269//66 282//66 217//66
f 269//66 217//66 218//66
f 270//66 283//66 219//66
f 270//66 219//66 193//66
f 271//66 284//66 220//66
f 271//66 220//66 195//66
f 272//66 285//66 221//66
f 272//66 221//66 197//66
f 273//66 286//66 222//66
f 273//66 222//66 199//66
f 274//66 287//66 223//66
f 274//66 223//66 201//66
f 275//66 257//66 194//66
f 275//66 194//66 203//66
f 276//66 258//66 196//66
f 276//66 196//66 205//66
f 277//66 259//66 198//66
f 277//66 198//66 207//66
f 278//66 288//66 224//66
f 278//66 224//66 209//66
f 279//66 261//66 202//66
f 279//66 202//66 211//66
f 280//66 262//66 204//66
f 280//66 204//66 213//66
f 281//66 263//66 206//66
f 281//66 206//66 215//66
f 282//66 264//66 208//66
f 282//66 208//66 217//66
f 283//66 265//66 210//66
f 283//66 210//66 219//66
f 284//66 266//66 212//66
f 284//66 212//66 220//66
f 288//66 260//66 200//66
f 288//66 200//66 224//66
f 285//66 267//66 214//66
f 285//66 214//66 221//66
f 286//66 268//66 216//66
f 286//66 216//66 222//66
f 287//66 269//66 218//66
f 287//66 218//66 223//66
f 202//67 201//67 240//67
f 202//67 240//67 233//67
f 212//67 211//67 251//67
f 212//67 251//67 248//67
f 195//67 220//67 254//67
f 195//67 254//67 231//67
f 205//67 196//67 236//67
f 205//67 236//67 238//67
f 197//67 221//67 253//67
f 197//67 253//67 230//67
f 214//67 213//67 250//67
f 214//67 250//67 247//67
f 207//67 198//67 235//67
f 207//67 235//67 237//67
f 217//67 208//67 242//67
f 217//67 242//67 256//67
f 209//67 224//67 226//67
f 209//67 226//67 252//67
f 199//67 222//67 228//67
f 199//67 228//67 229//67
f 219//67 210//67 241//67
f 219//67 241//67 255//67
f 223//67 218//67 245//67
f 223//67 245//67 227//67
f 211//67 202//67 233//67
f 211//67 233//67 251//67
f 220//67 212//67 248//67
f 220//67 248//67 254//67
f 194//67 193//67 232//67
f 194//67 232//67 225//67
f 204//67 203//67 239//67
f 204//67 239//67 244//67
f 196//67 195//67 231//67
f 196//67 231//67 236//67
f 206//67 205//67 238//67
f 206//67 238//67 243//67
f 216//67 215//67 249//67
f 216//67 249//67 246//67
f 208//67 207//67 237//67
f 208//67 237//67 242//67
f 198//67 197//67 230//67
f 198//67 230//67 235//67
f 218//67 217//67 256//67
f 218//67 256//67 245//67
f 201//67 223//67 227//67
f 201//67 227//67 240//67
f 210//67 209//67 252//67
f 210//67 252//67 241//67
f 193//67 219//67 255//67
f 193//67 255//67 232//67
f 213//67 204//67 244//67
f 213//67 244//67 250//67
f 203//67 194//67 225//67
f 203//67 225//67 239//67
f 224//67 200//67 234//67
f 224//67 234//67 226//67
f 221//67 214//67 247//67
f 221//67 247//67 253//67
f 215//67 206//67 243//67
f 215//67 243//67 249//67
f 222//67 216//67 246//67
f 222//67 246//67 228//67
f 200//67 199//67 229//67
f 200//67 229//67 234//67
f 14//66 12//66 270//66
f 14//66 270//66 257//66
f 52//66 50//66 271//66
f 52//66 271//66 258//66
f 28//66 26//66 272//66
f 28//66 272//66 259//66
f 2//66 64//66 273//66
f 2//66 273//66 260//66
f 42//66 40//66 274//66
f 42//66 274//66 261//66
f 18//66 16//66 275//66
f 18//66 275//66 262//66
f 56//66 54//66 276//66
f 56//66 276//66 263//66
f 32//66 30//66 277//66
f 32//66 277//66 264//66
f 8//66 6//66 278//66
f 8//66 278//66 265//66
f 46//66 44//66 279//66
f 46//66 279//66 266//66
f 22//66 20//66 280//66
f 22//66 280//66 267//66
f 60//66 58//66 281//66
f 60//66 281//66 268//66
f 36//66 34//66 282//66
f 36//66 282//66 269//66
f 12//66 10//66 283//66
f 12//66 283//66 270//66
f 50//66 48//66 284//66
f 50//66 284//66 271//66
f 26//66 24//66 285//66
f 26//66 285//66 272//66
f 64//66 62//66 286//66
f 64//66 286//66 273//66
f 40//66 38//66 287//66
f 40//66 287//66 274//66
f 16//66 14//66 257//66
f 16//66 257//66 275//66
f 54//66 52//66 258//66
f 54//66 258//66 276//66
f 30//66 28//66 259//66
f 30//66 259//66 277//66
f 6//66 4//66 288//66
f 6//66 288//66 278//66
f 44//66 42//66 261//66
f 44//66 261//66 279//66
f 20//66 18//66 262//66
f 20//66 262//66 280//66
f 58//66 56//66 263//66
f 58//66 263//66 281//66
f 34//66 32//66 264//66
f 34//66 264//66 282//66
f 10//66 8//66 265//66
f 10//66 265//66 283//66
f 48//66 46//66 266//66
f 48//66 266//66 284//66
f 4//66 2//66 260//66
f 4//66 260//66 288//66
f 24//66 22//66 267//66
f 24//66 267//66 285//66
f 62//66 60//66 268//66
f 62//66 268//66 286//66
f 38//66 36//66 269//66
f 38//66 269//66 287//66
